<svg xmlns="http://www.w3.org/2000/svg" xmlns:xlink="http://www.w3.org/1999/xlink" width="1025" height="1068" viewBox="0 0 1025 1068">
  <defs>
    <path id="header-image-a" d="M0.97585981,299.92496 C90.7974227,250.088131 173.080958,184.175342 241.087385,110.493222 C270.388721,78.7466474 295.416283,41.4150724 315.570752,0.900313817 L0.97585981,0.900313817 L0.97585981,299.92496 Z"/>
    <path id="header-image-c" d="M320.188075,106.908457 C324.680439,102.041199 329.072344,97.0426605 333.361631,91.9214981 L333.361631,0.492905235 L0.0531268137,0.492905235 L0.0531268137,335.499701 C45.9102213,316.009553 90.4288165,292.084598 132.817248,264.700644 C202.121879,219.928173 265.732179,165.909142 320.188075,106.908457 Z"/>
    <path id="header-image-e" d="M230.961397,0.143940074 C236.507599,131.365513 187.035344,277.451291 98.8706325,372.973475 C90.0968174,382.479537 81.0853635,391.85628 71.8507424,401.085867 L0.0417478888,401.085867 L0.0417478888,0.143940074 L230.961397,0.143940074 Z"/>
    <path id="header-image-g" d="M375.597726,0.394028453 C366.61271,114.500414 319.622841,232.268345 244.662493,313.484243 C224.193814,335.6612 202.431774,357.134335 179.560119,377.677159 L0.283617315,377.677159 L0.283617315,0.394028453 L375.597726,0.394028453 Z"/>
    <path id="header-image-i" d="M244.662493,313.484243 C227.717908,331.842992 360.319414,394.172163 341.706384,411.43776 L0.284294038,366.985006 L0.284294038,0.394207692 L375.597712,0.394207692 C366.61266,114.500538 319.622802,232.268388 244.662493,313.484243 Z"/>
  </defs>
  <g fill="none" fill-rule="evenodd">
    <path fill="#EFF3F6" d="M717.956476,7.64866761 C625.242245,-16.9802928 536.165586,20.3082293 469.129289,84.557925 C439.982138,112.492497 414.787781,144.553707 393.318757,178.710502 C353.706643,241.734038 324.829937,309.341332 305.105372,377.839564 C286.36408,442.919248 303.19793,540.45452 242.072017,590.108612 C212.880091,613.821538 179.9091,626.789433 147.855115,638.828744 C83.571624,662.970109 22.9740636,683.366667 3.92829732,779.161294 C-14.4440434,871.569641 33.5411147,954.428641 107.92599,1006.42391 C221.382089,1085.72812 381.632315,1079.33739 508.09126,1038.27717 C653.293288,991.130973 789.137207,897.421176 892.232223,785.923099 C990.975047,679.128886 1041.27779,509.148008 1020.29055,367.375975 C997.420948,212.899565 876.700449,49.8185245 717.956476,7.64866761 Z"/>
    <path stroke="#0F2337" stroke-width="4" d="M137,675 L771,675"/>
    <path fill="#47C998" d="M519.495018,673 L345.506773,673 C342.466762,673 340,670.537661 340,667.500895 C340,664.462339 342.466762,662 345.506773,662 L519.495018,662 C522.535029,662 525,664.462339 525,667.500895 C525,670.537661 522.535029,673 519.495018,673"/>
    <path fill="#0F2337" d="M662.413509,612 L445.586491,612 C425.931892,612 410,596.000214 410,576.26366 L410,445.738143 C410,426.001588 425.931892,410 445.586491,410 L662.413509,410 C682.066313,410 698,426.001588 698,445.738143 L698,576.26366 C698,596.000214 682.066313,612 662.413509,612"/>
    <path fill="#273452" d="M662.436002,612 L465.563998,612 C445.921822,612 430,596.000214 430,576.26366 L430,445.738143 C430,426.001588 445.921822,410 465.563998,410 L662.436002,410 C682.076384,410 698,426.001588 698,445.738143 L698,576.26366 C698,596.000214 682.076384,612 662.436002,612"/>
    <path fill="#0F2337" d="M653,678 L579.006234,678 L561.16268,582.311287 C560.064449,576.424819 564.666217,571 570.756899,571 L605.495207,571 C609.564063,571 613.206229,573.481585 614.632129,577.226072 L653,678 Z"/>
    <path fill="#273452" d="M610.930884,598.528739 C613.83387,609.171447 610.62169,619.128219 603.756443,620.769818 C596.891196,622.409631 588.9724,615.112642 586.069414,604.469935 C583.166428,593.827228 586.3767,583.870455 593.241946,582.230642 C600.109102,580.589043 608.027898,587.886032 610.930884,598.528739"/>
    <path stroke="#F3CC47" stroke-width="2" d="M512,668.277283 C523.41999,673.558881 523.545939,688.834199 523.54414,701.472311 C523.540541,713.840953 523.331826,726.207799 523.312034,738.576441 C523.279647,758.606994 518.524166,781.287329 531.959343,798.328569 C534.832783,801.973591 538.625652,805.298842 543.231792,805.90425 C546.30855,806.308454 549.50406,805.41202 552.028441,803.610168 C555.438065,801.177758 557.523423,797.302789 558.982634,793.379316 C563.608567,780.938815 563.865863,767.01264 564.889649,753.918228 C566.197721,737.196758 565.537388,720.202225 567.31687,703.552614 C567.590359,700.98008 567.939418,698.330298 569.07476,696.1458 C571.332848,691.803751 576.028953,690.515688 580.210465,690.652219 C589.26441,690.950432 598.28057,691.108521 607.361504,691.237866 C611.23714,691.29176 615.395261,691.246848 618.579976,688.521615 C622.768685,684.939469 623.886034,677.994347 624.375436,671.737269 C625.483789,657.548811 625.111339,643.189688 623.303069,629.110814 C622.133541,620.002751 616.276905,591.604277 588.02651,596.580477"/>
    <path fill="#EFEFEF" d="M94.4290296,528.724208 C95.7729025,516.852271 100.650465,505.488953 114.176643,504.396498 L161.970687,504.004289 C161.970687,504.004289 226.512277,500.30248 251.433712,710.402982 C254.537291,736.492946 263.906922,762.221146 274.980934,780.991665 C296.245536,817.033711 323.542396,821.403529 352.37409,823.71022 C360.440896,824.354947 368.254277,824.845656 373.984922,825.042656 C379.033814,825.216374 383.05651,832.097047 382.999399,840.464175 C382.997615,840.621775 382.997615,840.779375 382.99583,840.936975 C382.986907,842.48432 382.835208,843.974356 382.565719,845.378429 C381.373545,851.612584 377.830932,856.093438 373.67617,855.99852 C347.785648,855.400356 272.014777,853.759884 206.607611,853.441102 C178.661124,853.304993 133.03905,846.195084 121.818693,793.907701 C117.979821,776.020101 118.586616,752.580683 117.271299,733.68301 C115.882808,713.723328 114.422931,693.774391 112.620392,673.904255 C109.024238,634.237409 104.105628,594.760399 96.0441756,556.85939 C96.0441756,556.85939 92.8745631,542.451526 94.4290296,528.724208"/>
    <path fill="#273452" d="M141.729311,775.240271 C137.892231,757.383919 138.49724,733.985448 137.18371,715.120788 C135.793437,695.195974 134.333562,675.281887 132.531026,655.446462 C128.934879,615.848912 124.016277,576.440866 115.954838,538.606067 C115.954838,538.606067 112.785231,524.223373 114.339695,510.520036 C114.589552,508.308551 114.964336,506.113157 115.496173,504 L114.177289,504.010727 C100.651133,505.101273 95.7735795,516.442952 94.4297089,528.295937 C92.8734605,541.999275 96.0448521,556.381969 96.0448521,556.381969 C104.104506,594.216768 109.023108,633.623026 112.62104,673.222364 C114.423576,693.057789 115.883451,712.971876 117.271939,732.894902 C118.587254,751.759562 117.98046,775.159821 121.819325,793.016172 C133.037878,845.210424 178.661658,852.309701 206.606312,852.445572 C272.013366,852.762009 347.78589,854.399616 373.676368,854.998523 C377.831123,855.093275 381.371946,850.620248 382.565902,844.396984 C382.833606,842.995364 382.985304,841.507931 382.996012,839.963289 C382.996012,839.805964 382.997797,839.648639 382.999582,839.491315 C383.004936,838.634968 382.958534,837.800074 382.881792,836.981271 C350.562866,836.267946 284.475846,834.950352 226.518083,834.669671 C198.571644,834.533799 152.949649,827.436311 141.729311,775.240271"/>
    <path fill="#C38675" d="M473.751733,1047 L442.348631,837.501967 L382.80362,825.102742 C307.545418,825.929715 259,678.02506 259,678.02506 L301.55492,678 C301.55492,678 487.657926,755.549302 500.032916,771.770145 C511.901086,787.321533 517.126877,805.151571 515.798043,824.714316 C514.539054,843.213809 509.257745,1036.22608 510.373464,1036.22608 L473.751733,1047 Z"/>
    <path fill="#0F2337" d="M252.805629,531.884715 C268.023354,526.062334 283.174775,520.015116 297.887155,512.991206 C311.64081,506.427762 325.980452,500.463284 333.008704,486.00716 C339.572827,472.484559 339.795036,455.85381 332.752447,442.467911 C328.679215,434.728119 320.98792,429.371601 319.031048,420.518416 C316.744447,410.188502 322.989592,405.519086 329.756211,399.133713 C337.811284,391.532421 346.710392,383.047969 351.756684,373.031028 C355.482267,365.638385 356.066461,357.589218 353.15445,349.820648 C349.973637,341.334397 343.454315,332.454232 334.383174,329.864109 C329.530418,328.477314 324.054044,327.968283 319.950348,324.748616 C316.375293,321.940851 315.235577,317.873998 313.436401,313.954638 C311.558378,309.867999 308.673246,306.333561 305.311441,303.32614 C290.964631,290.487044 268.272443,289.853903 252.354043,300.128057 C245.080286,304.824454 239.297478,311.722455 235.695544,319.59535 C231.599015,328.558255 232.358826,337.211785 230.978981,346.663935 C229.561503,356.369702 220.726907,363.726371 211.774039,366.454993 C203.057716,369.111668 193.737486,369.928277 185.77739,374.673238 C178.614737,378.943344 172.736954,385.406061 169.262252,393.014547 C164.45788,403.531526 164.366488,415.982104 168.85009,426.624991 C172.527289,435.36126 183.747046,443.223363 180.75977,454.790781 C174.966211,477.21693 148.914009,489.489436 152.209511,512.582902 C153.59294,522.270681 154.924402,531.454826 148.700761,539.926687 C144.864073,545.150102 139.169074,548.799657 135.484707,554.134591 C130.649872,561.136917 129.882893,570.500931 132.422167,578.63104 C136.439847,591.495318 157.031802,594.596271 164.622745,604.717536 C176.548553,620.621611 172.555961,668.722355 193.875471,673.882815 C232.129449,683.140707 273.618001,632.741229 296.964271,600.947468 C307.013848,587.262985 314.386165,570.900242 314.11378,553.900761 C313.841395,536.903078 304.682446,519.452124 289.161871,512.644057 C260.31175,527.237482 248.193002,533.651035 252.805629,531.884715 Z"/>
    <path fill="#AF7162" d="M293.147744,537.974367 C293.147744,537.974367 275.781265,493.461201 304.843682,481.719256 C331.272329,471.04313 343.75822,513.268555 345.807104,521.014578 C345.996122,521.730506 346.149477,522.448229 346.272517,523.176718 L359.744511,603.310465 C362.344401,618.782773 375.59528,630.361436 391.353323,630.932026 L494.895986,634.68751 C508.795946,635.19171 519.614555,647.516805 517.801052,661.393974 C517.132356,666.518515 514.926551,670.266822 509.810581,669.985116 C505.327643,669.735707 502.77055,668.372034 501.397494,666.566961 C496.400998,659.999798 488.237558,656.701862 480.066985,657.602604 L396.547753,666.80381 C362.340834,670.571854 329.983083,649.800957 319.235802,617.176869 L293.147744,537.974367 Z"/>
    <path fill="#47C998" d="M203.911296,676 C203.911296,676 180.676919,529.095728 202.017326,483.961777 C211.079272,464.794057 233.260645,460.883663 262.827423,462.245509 C302.144373,464.055943 331.70037,469.673113 338.340047,505.161545 C349.470266,564.664584 300.983553,675.218994 300.997928,675.174314 L203.911296,676 Z"/>
    <path fill="#C38675" d="M211.035444,531.357575 C211.035444,531.357575 193.825991,486.706559 223.037055,474.767861 C252.248118,462.829163 264.240799,515.268064 264.240799,515.268064 L277.528297,596.700438 C280.064352,612.2371 293.301843,623.809602 309.053957,624.305567 L412.546419,627.574665 C426.655455,628.019078 437.655146,640.387968 435.794182,654.315856 C435.10659,659.469264 432.879505,663.248548 427.752031,662.987234 C423.430022,662.768583 420.89754,661.504673 419.491994,659.801685 C414.146634,653.325705 406.045546,649.757961 397.681924,650.71967 L314.145712,660.333202 C279.812532,664.28314 247.452832,643.562851 236.828191,610.829201 L211.035444,531.357575 Z"/>
    <path fill="#C4887A" d="M331.729611,1065 C331.729611,1065 373.062925,844.960727 373.17241,844.380999 C376.684907,825.652539 319.429589,825.895882 309.784132,824.825889 C267.76519,820.164798 206.720969,815.967132 185.419837,772.757657 C173.152122,747.874053 180.2525,718.570911 191.773562,694.819924 C195.086832,687.992008 198.793172,681.162302 203.260523,675 L300.233801,676.574572 L427.04446,748.537878 C427.04446,748.537878 479.261669,779.936274 456.054419,843.559716 C453.2796,851.169551 449.815564,860.126718 445.868716,870 C416.81568,942.677231 362.153902,1063.69919 362.153902,1063.69919 L331.729611,1065 Z"/>
    <path fill="#C7CDD2" d="M328.469251,803.740829 C347.186498,776.169749 373.320282,753.672464 403.095367,738.513742 C412.251299,733.139171 420,729.997143 420,729.997143 L299.626368,675 C299.733517,675.00179 203.138164,675.825342 203.138164,675.825342 C198.695028,681.993028 195.007296,688.823137 191.708875,695.660406 C180.245655,719.419874 173.17914,748.736525 185.392407,773.638223 C206.577666,816.869318 267.322553,821.078383 309.126964,825.740402 C309.95023,825.831709 311.132448,825.914064 312.58611,826 C314.813036,821.635176 317.997164,817.563966 321.370591,813.763095 C323.579658,810.323872 325.94945,806.974165 328.469251,803.740829 Z"/>
    <path fill="#C38675" d="M297.697575,467.810888 C297.43623,475.892662 298.94956,430.032626 298.513396,427.262244 C298.513396,427.262244 304.220613,430.572008 318.898331,419.814826 C333.576049,409.057644 331.946173,390.025156 331.946173,390.025156 L330.31453,366.855014 C320.96084,367.448155 316.00764,355.067451 313.95396,348.010682 C313.574303,346.711505 311.789032,346.648787 311.308722,347.915708 C307.008885,359.266031 291.953275,386.808574 249.177403,377.198251 C249.177403,377.198251 238.984936,372.648445 238.170881,379.267974 C237.355059,385.887502 238.984936,394.990698 253.662654,399.956241 C253.662654,399.956241 271.603657,442.984968 255.294297,467.810888 C255.294297,467.810888 261.817335,483.533612 280.572393,481.877834 C299.327451,480.223848 297.697575,467.810888 297.697575,467.810888"/>
    <path fill="#FFF" fill-opacity=".5" d="M337 400C331.47698 400 327 392.389061 327 383 327 373.610939 331.47698 366 337 366 342.52302 366 347 373.610939 347 383 347 392.389061 342.52302 400 337 400zM309.500851 400C303.701645 400 299 392.389061 299 383 299 373.610939 303.701645 366 309.500851 366 315.298355 366 320 373.610939 320 383 320 392.389061 315.298355 400 309.500851 400z"/>
    <path stroke="#FFF" d="M320,382 L327,382" opacity=".5"/>
    <path stroke="#EFEFEF" stroke-linecap="round" stroke-linejoin="round" stroke-width="2" d="M300,675 L426.993938,749.327834 C426.993938,749.327834 479.286617,780.979305 456.045826,845.119216 C453.892503,851.059165 441.40215,887.631432 438.51907,895"/>
    <path fill="#FFF" d="M581.21,419.04 C581.142,419.1 581.068,419.152 581,419.206 C581.068,419.132 581.136,419.066 581.198,419 C581.204,419.014 581.21,419.026 581.21,419.04"/>
    <path stroke="#020202" d="M581.21,419.04 C581.142,419.1 581.068,419.152 581,419.206 C581.068,419.132 581.136,419.066 581.198,419 C581.204,419.014 581.21,419.026 581.21,419.04 Z"/>
    <path fill="#E5E5E5" d="M935.224,592.042 C935.152,592.106 935.072,592.162 935,592.218 C935.072,592.142 935.144,592.07 935.21,592 C935.216,592.014 935.224,592.028 935.224,592.042"/>
    <path fill="#FFF" d="M747,847.002 L747,847 L747,847.002 Z"/>
    <polyline stroke="#020202" points="747 847.002 747 847 747 847.002"/>
    <path fill="#FFF" d="M952,858.132 C952.018,858.088 952.038,858.046 952.056,858 L952.054,858.002 C952.036,858.046 952.018,858.09 952,858.132"/>
    <path stroke="#020202" d="M952,858.132 C952.018,858.088 952.038,858.046 952.056,858 L952.054,858.002 C952.036,858.046 952.018,858.09 952,858.132 Z"/>
    <path fill="#6DD1CA" d="M850,612 C849.087513,614.238802 848.091782,616.58153 847,619 L848.043757,612.468546 C848.258271,612.420986 848.472785,612.373427 848.690502,612.325868 C849.135539,612.220181 849.567769,612.114494 850,612"/>
    <g transform="translate(572 214)">
      <path fill="#C38675" d="M353.689157,136.768477 C353.689157,136.768477 391.783717,112.757719 378.59872,109.49379 C375.60993,108.755328 369.12826,102.526798 366.405815,100.969218 C366.629259,99.8507709 366.856279,98.7520403 367.077935,97.5959535 C367.077935,97.5959535 360.274505,54.0966184 326.992041,77.5893781 C319.058877,83.190574 313.056271,92.3120094 303.71809,95.7677232 C299.508401,97.3270961 291.094385,81.6186544 289.632166,76.8150688 C266.297438,0.262404823 263.004764,133.574451 265.552028,149.334872 C267.155464,159.252125 293.521883,174.064376 296.348005,178.796266 C297.563542,180.83062 297.005825,204.965053 296.644739,207.314866 C294.848248,219.017333 298.89527,208.320393 298.89527,208.320393 C308.015369,217.911433 323.690429,216.599409 323.690429,216.599409 C348.267506,216.473942 371.711275,210.16834 371.711275,210.16834 C371.711275,210.16834 346.15998,165.080954 353.689157,136.768477"/>
      <path fill="#0F2337" d="M401.459209,114.812685 C396.193076,122.415973 389.639904,128.547714 382.428911,131.833151 C376.099183,134.724264 367.962238,130.612539 362.029347,135.174152 C357.698104,138.499022 353.180956,151.040324 347.544798,150.852124 C342.037345,150.674678 336.410126,148.964745 332.041344,145.482145 C327.978234,142.254064 325.146749,137.16549 325.359468,131.935317 C325.506047,127.701709 331.505078,120.295584 320.277452,112.014776 C319.444452,111.38565 318.527437,110.776239 317.490656,110.156075 C310.383342,105.875865 314.63057,98.1399417 313.372132,92.1318749 C312.076155,93.1642874 316.205405,118.582066 316.416336,120.897824 C317.172471,129.130238 308.143537,131.437035 304.709646,125.333972 C301.150626,119.008653 292.538192,83.2595807 289.436786,76.9432242 C285.854528,69.6392648 259.632901,63.921564 258.28151,55.5099122 C257.051673,47.8492686 260.753697,39.6903427 267.094151,35.3635309 C275.840652,29.3823499 287.558067,30.7624846 297.434302,26.998481 C309.457389,22.4350747 317.510319,10.8222273 328.866648,4.75859676 C340.028134,-1.20286801 354.133722,-1.07202408 365.195105,5.05971705 C377.774121,12.0249161 391.981599,26.8945228 393.408067,42.038364 C393.408067,40.4789911 401.246491,45.8489695 401.478873,46.0282078 C420.425156,61.8173068 415.870468,93.9332195 401.459209,114.812685"/>
      <path fill="#C38675" d="M319.989299,134.214332 C333.875017,129.520081 328.928855,89.1986407 323.255159,84.2068549 C313.314573,75.4618199 311.48948,87.1965492 311.48948,87.1965492 C311.48948,87.1965492 315.715257,121.776988 316.017354,126.091253 L319.989299,134.214332 Z"/>
      <g transform="translate(79.1 458.85)">
        <mask id="header-image-b" fill="#fff">
          <use xlink:href="#header-image-a"/>
        </mask>
        <path fill="#C7CDD2" d="M333.926853,93.9267669 C261.713254,156.81789 160.001441,147.570988 72.9314813,143.249553 L33.9645953,395.762217 L11.8668549,392.095002 C11.8668549,392.095002 -0.955268767,203.912745 1.22554691,110.327068 C3.40993769,16.7413919 234.329717,0.900313817 234.329717,0.900313817 C234.329717,0.900313817 327.663265,30.0659647 334.286152,86.2105595 L333.926853,93.9267669 Z" mask="url(#header-image-b)"/>
      </g>
      <g transform="translate(0 462.435)">
        <mask id="header-image-d" fill="#fff">
          <use xlink:href="#header-image-c"/>
        </mask>
        <path fill="#C7CDD2" d="M333.00412,93.5193584 C260.788733,156.410482 159.078708,147.163579 72.0087483,142.842145 L33.0418623,395.354808 L10.9441219,391.687593 C10.9441219,391.687593 -1.87800176,203.505336 0.302813911,109.91966 C2.48720469,16.3339833 233.406984,0.492905235 233.406984,0.492905235 C233.406984,0.492905235 326.740532,29.6585561 333.361631,85.803151 L333.00412,93.5193584 Z" mask="url(#header-image-d)"/>
      </g>
      <g transform="translate(221.317 196.37)">
        <mask id="header-image-f" fill="#fff">
          <use xlink:href="#header-image-e"/>
        </mask>
        <path fill="#47C998" d="M196.748143,16.617867 C178.55442,8.08612549 159.111197,2.96349581 139.328338,1.17111313 C98.6060746,-2.51761041 62.0899249,3.81129281 24.3814768,18.8260825 C16.4483129,54.023101 2.15860762,89.7865125 0.515845649,126.196974 C0.481882126,126.967699 0.328152496,127.652389 0.0904078368,128.261799 C-0.469096512,157.151423 3.52429875,253.094083 26.3424234,343.241969 C54.321216,453.780001 153.323097,370.876925 126.036088,376.447651 C55.9353771,390.756241 254.931232,235.932019 263.938716,166.884061 C265.157828,157.543955 265.983678,147.096156 266.239298,136.067626 C267.46556,83.2658243 241.39945,37.5618585 196.748143,16.617867" mask="url(#header-image-f)"/>
      </g>
      <g transform="translate(75.526 255.859)">
        <mask id="header-image-h" fill="#fff">
          <use xlink:href="#header-image-g"/>
        </mask>
        <path fill="#E5E3E3" d="M441.956954,26.9313648 C439.894117,14.2018631 432.42393,2.01903806 411.715118,0.84144264 L338.54339,0.398724119 C338.54339,0.398724119 239.732777,-3.59828924 201.65788,221.637895 C196.9155,249.608026 182.581106,277.187418 165.635095,297.305122 C133.094466,335.936345 91.3032445,340.610879 47.1667529,343.068236 C34.8147559,343.756511 22.8524457,344.279887 14.080919,344.489595 C6.34974872,344.672418 0.195200878,352.046281 0.28457857,361.018948 C0.286366124,361.187432 0.288153678,361.355916 0.289941231,361.5244 C0.306029216,363.184147 0.538411214,364.78116 0.951336149,366.286761 C2.77821616,372.972348 8.20344204,377.777726 14.5635586,377.675561 C54.2007772,377.046434 170.204083,375.32037 270.339274,375.008495 C313.122587,374.875859 382.967678,367.272572 400.124619,311.219388 C405.993159,292.044478 405.05648,266.915273 407.062116,246.655972 C409.182155,225.258508 411.409447,203.871798 414.160492,182.569329 C419.651858,140.045051 427.166734,97.7233109 439.493705,57.0953728 C439.493705,57.0953728 444.341551,41.648619 441.956954,26.9313648" mask="url(#header-image-h)"/>
      </g>
      <g transform="translate(75.526 255.859)">
        <mask id="header-image-j" fill="#fff">
          <use xlink:href="#header-image-i"/>
        </mask>
        <path fill="#273452" d="M338.544105,0.398903358 C338.544105,0.398903358 239.731704,-3.59811 201.656808,221.638074 C196.916215,249.608205 182.581821,277.187598 165.635811,297.305301 C133.093393,335.936525 91.3039596,340.611059 47.1656804,343.068415 C34.8136834,343.75669 22.8531607,344.280066 14.0816341,344.489775 C6.35046374,344.672598 0.194128346,352.04646 0.285293591,361.019128 C0.287081145,361.187612 0.287081145,361.356096 0.288868699,361.52458 C0.306744237,363.184326 0.539126235,364.781339 0.950263616,366.28694 C14.0369452,366.304864 53.9405094,367.425103 65.316502,366.7906 C109.454781,364.331451 151.244215,359.658709 183.786632,321.027485 C200.732642,300.90799 215.067037,273.328598 219.809417,245.358466 C257.882526,20.1222823 357.107852,24.121088 357.107852,24.121088 L429.864868,24.5638066 C434.544683,24.8290792 438.538079,25.6625371 441.957669,26.9315441 C439.894832,14.2020423 432.422857,2.01921729 411.714046,0.841621878 L338.544105,0.398903358" mask="url(#header-image-j)"/>
      </g>
      <path fill="#47C998" d="M268.212266,385.588115 C269.064929,385.487742 269.906867,385.360482 270.739867,385.206337 C269.906867,385.369444 269.064929,385.496703 268.212266,385.588115 M287.88072,256.144031 C287.694815,255.079355 287.492821,254.039773 287.280102,253.019908 C285.261954,244.947016 282.382205,237.257694 278.4764,229.969867 C270.248289,216.996601 259.576593,209.361051 245.471006,215.655898 C213.788402,229.804967 205.347572,265.381971 202.912924,301.333583 C201.645548,320.110584 202.02451,338.99692 201.581197,354.967049 L201.581197,355.004689 C201.552596,355.796923 201.523995,356.589156 201.506119,357.390351 C201.497181,357.417236 201.497181,357.436953 201.497181,357.454877 C201.477518,358.24711 201.450705,359.048305 201.422104,359.851292 C201.422104,359.878178 201.413166,359.914026 201.413166,359.940911 C201.386353,360.743899 201.357752,361.545094 201.329151,362.357043 L201.329151,362.428738 C201.264799,364.086692 201.200448,365.753608 201.136096,367.449202 C198.637095,428.50851 185.650517,563.609354 184.465369,568.875375 C184.447493,568.921977 184.438555,568.975748 184.429618,569.02235 C183.782523,571.882993 183.217656,573.813389 183.058564,573.842067 C175.931587,575.189939 168.879687,578.177841 163.084437,582.241172 C152.164271,589.885684 143.537536,610.766943 155.115522,623.903315 C157.837967,627.002345 158.327756,626.100776 158.300943,620.962015 C158.216928,602.731691 171.859539,591.077619 187.575712,594.567388 C196.434829,596.553348 199.924134,590.90555 201.404229,583.9995 C202.051323,580.920186 257.32785,454.173638 274.23811,390.31642 L274.247047,390.289535 C274.247047,390.289535 276.154367,382.691625 276.172243,382.627099 C287.36233,335.123581 293.767135,288.706247 287.88072,256.144031"/>
      <path fill="#C4887A" d="M184.012045,570.781036 C183.550856,572.641529 183.18262,573.819125 183.059279,573.840633 C175.932302,575.188505 168.880402,578.178199 163.085152,582.241531 C152.163198,589.884251 143.536464,610.765509 155.116237,623.903674 C157.836894,627.000911 158.328471,626.099342 158.299871,620.962374 C158.215856,602.730257 171.860254,591.077977 187.576427,594.567746 C196.433756,596.553706 199.923062,590.905909 201.403156,583.999858 C201.471083,583.677229 202.141416,581.99239 203.297963,579.178349 C199.229491,578.043771 186.532496,572.162963 184.012045,570.781036"/>
      <path stroke="#EFEFEF" stroke-linecap="round" stroke-linejoin="round" stroke-width="2" d="M238.080364,493.361576 C252.822321,456.006528 266.375554,419.201743 274.024497,390.317496 L274.033435,390.288818 C274.033435,390.288818 275.940755,382.690908 275.95863,382.626382 C287.148717,335.124656 293.553522,288.70553 287.667108,256.145106 C287.48299,255.078638 287.277421,254.039056 287.064702,253.019191 C285.048341,244.948092 282.17038,237.256978 278.262787,229.96915 C270.034677,216.995884 252.298568,210.582739 238.19298,216.877587"/>
    </g>
    <polygon fill="#273452" points="286 1064 269 1062.303 269 847 286 847"/>
  </g>
</svg>
